<?xml version="1.0" encoding="utf-8"?>
<!-- Generator: Adobe Illustrator 26.3.1, SVG Export Plug-In . SVG Version: 6.00 Build 0)  -->
<svg version="1.1" xmlns="http://www.w3.org/2000/svg" xmlns:xlink="http://www.w3.org/1999/xlink" x="0px" y="0px"
	 viewBox="0 0 320.3 145.7" style="enable-background:new 0 0 320.3 145.7;" xml:space="preserve">
<style type="text/css">
	.st0{fill:#125C6D;}
	.st1{fill:#A9DADE;}
	.st2{fill:#008296;}
	.st3{fill:#1D1D1B;}
</style>
<g id="Capa_2">
</g>
<g id="Capa_1">
	<g>
		<rect x="-38" y="201.7" class="st0" width="841" height="358"/>
		<g>
			<path class="st1" d="M149.1,355.7c3.2,0,6.1,1.8,7.7,4.6c0.6,1.3,1.1,2.8,1.2,4.3v0.4c-0.2,3.1-1.7,5.9-4.4,7.4
				c-1.2,0.9-2.9,1.3-4.6,1.3L149.1,355.7L149.1,355.7z M149,339.5v-18.2c3.3,0,6.4,1.8,7.9,4.6c2.6,4.2,1.3,9.5-2.8,12
				c-0.3,0-0.3,0.3-0.4,0.3C152.2,339,150.5,339.5,149,339.5L149,339.5z M149,305v-18.2c3.3,0,6.1,1.8,7.9,4.6
				c2.4,4.3,1.1,9.9-3.3,12.5C152.2,304.6,150.5,305,149,305z M146.2,356.3c0.9-0.3,2-0.4,2.8-0.4v18.3c-3.1,0-6.2-1.8-7.7-4.4
				c-0.4-0.9-0.9-2-1.1-3.1c-1.1-3.3-3.3-6.2-6.2-8.1v-4.9c0.4,0.3,0.9,0.7,1.3,0.9C138.5,356.7,142.4,357.4,146.2,356.3
				L146.2,356.3z M149,286.9v18.2c-5,0-9-3.9-9.2-8.8c0-3.3,1.8-6.4,4.6-8.1C145.9,287.3,147.5,286.9,149,286.9z M149,321.2v18.3
				c-3.3,0-6.2-1.8-7.7-4.6c-0.7-0.9-0.9-1.8-1.1-2.8c-1.3-3.3-3.5-6.2-6.2-8.4v-4.9c0.4,0.3,0.7,0.7,1.1,0.9
				c3.1,2.2,7.3,3.1,11.1,2C147,321.4,148.1,321.2,149,321.2L149,321.2z M133.2,358.5c-0.3-0.3-0.7-0.4-0.8-0.7
				c-2.8-1.9-6.5-2.6-9.8-1.9c-1.1,0.4-2.2,0.8-3.3,0.8h-0.4c-4.8,0.4-8.8-3-9.5-7.8c-1.1-2.8-3-5.4-5.4-7.3v-4.8
				c0.3,0.3,0.4,0.4,0.8,0.4c3,2.2,6.9,2.8,10.6,1.9l2.2-0.4h0.3c3.4-0.3,6.7,1.3,8.7,4.3c0.3,0.4,0.4,0.8,0.7,1.3
				c0.3,0.4,0.3,0.7,0.4,0.8c1.1,3.3,3.3,5.8,5.8,8L133.2,358.5L133.2,358.5z M134,318.8v4.9c-0.3-0.3-0.7-0.4-1.1-0.7
				c-3.1-2-6.6-2.6-10.1-2c-4.6,2.2-9.9,0.3-12-4.3c-2.2-4.6-0.3-9.9,4.3-12c4.2-2,9.2-0.4,11.6,3.5c0.3,0.3,0.3,0.7,0.4,0.9
				c0.3,0.4,0.4,1.1,0.7,1.5C129.1,314.1,131.1,316.9,134,318.8z M104,375.2v-4.8c0.3,0.4,0.9,0.7,1.1,0.9c3.3,2.2,7.2,2.8,11,2
				c4.2-1.5,8.8,0.3,11,4.2c2.4,4.3,1.1,9.9-3.3,12.3c-4.3,2.4-9.9,1.1-12.5-3.1c-0.4-0.9-0.9-2-1.1-3.1
				C109.1,380.2,106.9,377.4,104,375.2z M103.9,341.4c-0.4-0.4-0.9-0.9-1.5-1.1c-3.1-1.8-6.6-2.4-10.1-1.8c-1.1,0.4-2.2,0.7-3.3,0.9
				v-18c3.1,0.3,5.7,1.8,7.2,4.3c0.3,0.3,0.3,0.7,0.3,0.9c0.4,0.4,0.7,1.1,0.9,1.5c1.3,3.3,3.5,6.4,6.4,8.4L103.9,341.4L103.9,341.4
				z M104,370.5l0,4.9c0,0,0,0-0.1,0c-3.3-2.5-7.2-3.5-11.2-2.7c-1.1,0.7-2.4,0.9-3.8,0.9v-18.3c3.1,0.3,5.9,2,7.7,4.6
				c0.3,0.3,0.3,0.4,0.3,0.9c0.4,0.4,0.7,0.9,0.9,1.5C99.2,365.6,101.2,368.5,104,370.5L104,370.5z M89,408.5v-18.2
				c3.3,0,6.4,1.8,7.9,4.6c2.4,4.3,0.9,10.1-3.5,12.5C92.1,408.1,90.5,408.5,89,408.5z M89.9,339.7c-3.5,0.3-6.9-1.3-8.6-4.3
				c-0.7-1.3-1.1-2.8-1.3-4.3v-0.3c0.3-3.3,1.8-6.1,4.7-7.9c1.6-0.9,3.4-1.3,5.3-1.1L89.9,339.7L89.9,339.7z M89,355.5v18.2
				c-5,0.3-9.2-3.8-9.5-8.8c-0.3-3.3,1.5-6.6,4.6-8.1C85.5,355.9,87.3,355.5,89,355.5z M89,390.4v18.2c-3.3,0-6.1-1.8-7.9-4.3
				c-2.4-4.3-0.9-9.9,3.3-12.5C85.8,390.8,87.3,390.4,89,390.4z"/>
			<path class="st2" d="M245,346.3v0.2c-0.2,3.2-1.7,5.8-4.4,7.3c-1.5,0.8-2.9,1.2-4.6,1.2v-17.4c3.2,0,6.1,1.5,7.7,4.1
				C244.4,343.4,244.8,344.8,245,346.3L245,346.3z M236,320.8v-18.2c3.3,0,6.1,1.8,7.9,4.6c2.6,4.3,1.1,9.9-3.3,12.5l0,0
				C239.2,320.6,237.7,321.1,236,320.8z M236,286.6v-18.2c5,0,9,3.9,9.2,9c0,3.3-1.8,6.4-4.6,7.9C239.2,286.2,237.7,286.6,236,286.6
				z M203.8,354.8c4.9-1.5,9.9,0.9,11.6,5.7c1.8,4.9-0.9,9.9-5.7,11.6c-4.2,1.3-8.5-0.3-10.7-3.9c-0.4-0.9-0.9-2-1.1-3.1
				c-1.3-3.5-3.9-6.6-7-8.8c-3.1-2-6.6-2.6-10.1-1.8c-1.1,0.4-2.4,0.7-3.8,0.9v-18.2c3.1,0.3,5.9,1.8,7.4,4.6
				c0.3,0.3,0.4,0.4,0.4,0.9c0.3,0.4,0.4,1.1,0.7,1.5c1.5,3.8,3.9,6.8,7.2,8.8C196.1,354.8,200,355.7,203.8,354.8L203.8,354.8z
				 M236,268.4v18.2c-3.3,0-6.1-1.8-7.9-4.6c-2.4-4.3-1.1-9.9,3.3-12.3C232.9,268.9,234.5,268.4,236,268.4z M236,302.6
				c-1.1,0-2,0.3-3.1,0.7c-3.8,0.9-7.7,0.3-11-2c-3.3-2.2-5.7-5.3-7-9c-0.3-0.4-0.4-0.9-0.9-1.3c-0.3-0.3-0.3-0.4-0.4-0.9
				c-2.4-4.2-7.9-5.7-12.3-3.3l0,0c-4.3,2.6-5.7,8.1-3.1,12.5c2.4,3.9,7.2,5.5,11.4,3.8c3.5-0.9,7-0.3,10.1,1.8
				c3.3,2.2,5.7,5.3,7.2,8.8c0.3,1.1,0.4,2.2,1.1,3.1c1.5,2.8,4.6,4.3,6.8,4.3v-18.5L236,302.6L236,302.6z M236,337.1
				c-0.8,0-1.9,0.3-2.8,0.4c-3.7,0.9-7.6,0.3-10.9-2c-3.3-2-5.8-5-7.2-8.8c0-0.4-0.3-0.7-0.3-1.1c-0.3-0.4-0.4-0.9-0.7-1.3
				c-1.8-3.1-5.3-4.9-8.7-4.3l0,0c-0.7,0-1.5,0.3-2.2,0.4c-3.7,0.9-7.6,0.3-10.7-2c-3.3-2.2-5.8-5.3-7.2-9.2
				c-0.3-0.4-0.4-1.1-0.8-1.5c0-0.3-0.3-0.7-0.3-0.9c-1.5-2.6-4.2-4.3-7.2-4.6v18.2c1.1-0.3,2.2-0.4,3.3-0.9c3.5-0.9,7-0.3,10,1.8
				c3.1,2,5.4,4.9,7,8.4c0.3,1.3,0.4,2.4,1.1,3.5c1.8,3.1,5,4.6,8.3,4.3h0.1c0,0,2.2,0.2,3.3-0.4c3.5-0.7,7,0,9.9,1.8
				c3.3,2.2,5.7,5.3,7.2,8.8c0.3,1.1,0.4,2,0.9,3.1c1.8,2.6,4.6,4.3,6.9,4.6l1-18V337.1z M177,458.8v-18c2.8,0.3,5.5,2,7,4.3
				c2.4,4.3,0.9,9.9-3.3,12.3C179.4,458.2,178.3,458.6,177,458.8L177,458.8z M177,424.4v-18.2c2.8,0.4,5.3,2.2,6.8,4.6
				c2.4,4.3,0.9,10.1-3.8,12.5C179,423.7,178.1,424.1,177,424.4z M177,389.9c1.5,0,3.3-0.4,4.6-1.3c4.3-2.4,5.9-8.1,3.3-12.3l0,0
				c-1.8-2.8-4.6-4.3-7.9-4.3V389.9z M177.2,354.7c-3.3,0.3-6.6-1.5-8.4-4.3c-2.4-4.3-0.9-9.9,3.3-12.5c1.5-0.9,3.3-1.3,4.9-1.3
				v18.2H177.2z M177,302.8v18.2c-3.5,0.3-6.8-1.5-8.5-4.6c-2.4-4.3-0.9-9.9,3.5-12.5C173.5,303.1,175.2,302.6,177,302.8z M177,372
				v18c-3.3,0-6.1-1.5-7.7-4.3c-2.4-4.2-1.1-9.9,3.1-12.3C173.7,372.4,175.2,372,177,372L177,372z M176.8,406.1
				c-1.3-0.3-2.8,0-4.2,0.4c-3.8,0.9-7.9,0.3-11-2c-3.3-2-5.9-5-7.2-8.8c-0.3-0.7-0.4-1.1-0.9-1.5c0-0.3-0.3-0.4-0.4-0.9
				c-2.6-4.2-8.1-5.7-12.5-3.5c-4.3,2.6-5.7,8.1-3.3,12.5c2.4,4.2,7.4,5.7,11.9,3.8c3.5-0.7,7,0,10.1,2c3.3,2,5.7,5,7,8.8
				c0.3,1.1,0.7,2,1.1,2.8c1.8,3.1,5.5,5,9,4.6C176.8,424.1,176.8,406.1,176.8,406.1z M177,441v17.7c-3.5,0.4-7-1.3-8.7-4.3
				c-0.4-0.8-0.8-1.9-1.1-3c-1.3-3.4-3.9-6.7-7-8.6c-3.1-1.9-6.5-2.6-10-1.9c-1.1,0.4-2,0.8-3.1,0.8h-0.3c-3.5,0.3-6.8-1.5-8.5-4.5
				c-0.7-1.1-0.8-2.2-1.1-3.3c-1.5-3.4-3.9-6.3-7-8.4c-3.1-1.8-6.8-2.3-10.3-1.8c-0.8,0.4-2,0.8-3.1,0.8V407c3.1,0.3,5.7,1.8,7,4.3
				c0.3,0.3,0.3,0.7,0.4,0.8c0.3,0.4,0.4,0.8,0.8,1.5c1.3,3.7,3.9,6.7,7.2,8.6c3.1,2.2,7,2.8,10.4,1.9l2.4-0.4h0.3
				c3.5-0.3,6.8,1.3,8.5,4.3c0.3,0.4,0.4,0.8,0.7,1.5l0.4,0.8c1.3,3.7,3.9,6.7,7.2,8.8c3.3,2.2,7.2,2.8,10.9,1.9
				C174.2,440.9,175.7,440.9,177,441L177,441z M116,493.2V475c3.3,0,6.1,1.8,7.9,4.6c2.4,4.3,1.1,9.9-3.3,12.5
				C119.1,493,117.5,493.2,116,493.2z M116,458.6c1.3,0,2.4-0.3,3.5-0.9c3.5-0.7,7.2,0,10.3,2c3.3,2.2,5.7,5.3,7,8.8
				c0.3,1.1,0.7,2,1.1,3.1c2.6,4.3,8.1,5.7,12.5,3.1c4.3-2.6,5.7-8.1,3.1-12.5c-2.2-3.8-6.6-5.3-10.7-3.9c-3.8,1.1-7.7,0.4-11-2
				c-3.3-2.2-5.9-5.3-7.2-9c-0.3-0.7-0.4-1.1-0.9-1.5c-0.3-0.3-0.3-0.4-0.3-0.7c-1.5-2.6-4.3-4.3-7.4-4.6
				C116,440.4,116,458.6,116,458.6z M116,406.2v18.3c-3.6,0.4-7-1.3-8.7-4.4c-0.9-1.3-1.1-2.9-1.3-4.4v-0.3c0-3.4,1.8-6.3,4.7-8.1
				C112.2,406.4,114.2,406,116,406.2L116,406.2z M116,440.3v18.2c-5,0.3-9.2-3.8-9.5-8.8c-0.3-3.3,1.5-6.4,4.3-8.1
				C112.5,440.8,114.2,440.3,116,440.3z M116,475v18.2c-5,0-9.2-3.9-9.2-8.8c0-3.3,1.8-6.4,4.6-8.1C112.7,475.7,114.5,475.2,116,475
				z"/>
			<path class="st1" d="M261,423c5,0.3,8.8,4.3,8.8,9.5c-0.3,3.1-1.8,5.9-4.6,7.4c-1.3,0.7-2.6,1.1-4.2,1.3V423L261,423z M271,362.9
				v0.3c-0.3,3.1-1.8,6.2-4.7,7.8c-1.6,0.9-3.5,1.3-5.3,1.1v-18.4c3.5-0.3,6.9,1.6,8.6,4.7C270.6,359.8,271,361.4,271,362.9
				L271,362.9z M261,406.4v-18c3.1,0.3,5.9,1.8,7.4,4.3c2.4,4.3,0.9,9.9-3.3,12.5C263.8,405.9,262.3,406.4,261,406.4z M257.6,423.4
				c1.1-0.4,2.2-0.7,3.4-0.4v18.4c-3.4,0-6.6-1.8-8.4-4.6c-0.7-0.9-1.1-2-1.1-3.1c-1.3-3.4-3.5-6.2-6.5-8.2v-4.9l1.5,0.9
				C249.9,423.6,253.9,424.3,257.6,423.4L257.6,423.4z M261,354v18.2c-3.1-0.3-5.7-1.8-7.2-4.3c-2.4-4.3-0.9-9.9,3.3-12.5
				C258.4,354.6,259.7,354.1,261,354L261,354z M262,388.2v18.4c-3.6,0.3-6.7-1.3-8.6-4.5c-0.4-0.9-0.9-2-1.1-3.1
				c-1.1-3.4-3.4-6.3-6.3-8.3v-5c0.4,0.3,0.9,0.4,1.3,0.9c3.4,2.3,7.4,2.9,11.3,2C259.6,388.2,260.7,388.2,262,388.2z M245.4,425.3
				c-0.3-0.3-0.4-0.4-0.9-0.7c-3.1-1.8-6.6-2.4-10.1-1.8c-0.9,0.4-2,0.7-3.1,0.9h-0.3c-3.5,0.3-6.6-1.3-8.4-4.3
				c-0.7-1.1-0.9-2.2-1.1-3.5c-1.3-2.8-3.3-5.5-5.7-7.4v-4.9c0.3,0.3,0.7,0.4,0.9,0.7c3.1,2.2,7,2.8,10.7,2c0.7-0.3,1.5-0.4,2.4-0.4
				l0,0c3.5-0.4,7,1.3,8.8,4.3c0.3,0.4,0.4,0.9,0.7,1.3c0.3,0.4,0.4,0.7,0.4,1.1c1.1,3.1,3.1,5.9,5.9,7.9L245.4,425.3L245.4,425.3z
				 M246,385.9v4.9c-0.3-0.3-0.7-0.7-0.9-0.9c-3.1-2-6.6-2.6-10.1-1.8c-4.3,2-9.5,0.4-11.9-3.8c-2.4-4.3-0.9-9.9,3.3-12.5
				c4.3-2.6,9.9-1.1,12.5,3.3l0,0c0.3,0.3,0.3,0.4,0.4,0.9c0.3,0.4,0.7,0.9,0.9,1.5C241.1,381.2,243.4,384,246,385.9L246,385.9z
				 M216,442.4v-4.9c0.4,0.4,0.9,0.4,1.3,0.9c3.3,2.2,7.2,2.8,11,2c4.2-1.5,8.5,0.3,10.7,3.9c2.6,4.3,1.1,9.9-3.3,12.5
				c-4.3,2.6-9.9,1.1-12.5-3.3c-0.7-0.9-0.9-2-1.1-3.1C220.9,447.4,218.8,444.5,216,442.4z M216,408.8c-0.4-0.3-0.9-0.7-1.3-0.9
				c-3.1-2-7-2.7-10.6-1.8c-1.1,0.4-2,0.7-3.1,0.9v-18.7c3.1,0.3,5.8,2,7.2,4.7c0.3,0.3,0.4,0.4,0.4,0.9c0.3,0.4,0.7,0.9,0.9,1.6
				c1.1,3.4,3.4,6.5,6.5,8.5C216,403.6,216,408.8,216,408.8z M216,437.6v5c-0.4-0.3-0.7-0.4-0.9-0.9c-3.1-2-7-2.7-10.6-1.8
				c-1.1,0.4-2.3,0.7-3.6,0.9v-18.7c3.1,0.3,6,2,7.6,4.7c0.3,0.3,0.3,0.4,0.4,0.9c0.3,0.4,0.7,1.1,0.9,1.6
				C211,432.7,213.1,435.6,216,437.6L216,437.6z M202,475.7v-18.2c3.3,0,6.1,1.5,7.9,4.3c2.4,4.3,0.9,9.9-3.3,12.5
				C205.1,475,203.5,475.5,202,475.7z M201.9,406.7c-3.5,0.3-6.9-1.5-8.6-4.6c-0.9-1.3-1.3-2.8-1.3-4.3v-0.3c0.3-5,4.4-9.1,9.7-8.9
				h0.3L201.9,406.7L201.9,406.7z M202,422.6v18.2c-3.3,0.3-6.6-1.5-8.1-4.3c-2.4-4.3-1.1-10.1,3.5-12.5
				C198.4,423,200.2,422.6,202,422.6L202,422.6z M202,457.5v18.2c-3.3,0-6.1-1.8-7.9-4.6c-2.4-4.2-1.1-9.6,3.1-12.3
				c0,0,0.3,0,0.3-0.3C198.7,457.9,200.2,457.5,202,457.5z"/>
			<path class="st3" d="M611,350V346c2.6,0.3,5-1.5,5.9-3.9c1.1-3.9,1.8-7.9,1.5-12c0.3-3.9-0.4-8.1-1.5-11.9
				c-0.9-2.6-3.3-4.2-5.9-4.2v-3.5c3.9-0.3,7.4,1.8,9.2,5.3c2.2,4.3,3.3,9.5,3.1,14.2c0.3,5-0.9,10.1-3.1,14.5
				C618.7,348,614.9,350,611,350z M611,310.5v3.8c-2.4,0-4.8,1.5-5.6,4.2c-1.3,3.8-1.8,7.9-1.5,11.9c-0.3,3.9,0.3,8.1,1.3,12
				c0.9,2.6,3.3,4.2,6.9,3.9v3.8c-4.9,0.3-8.4-1.8-10.5-5.3c-2.2-4.6-3.3-9.5-3.1-14.5c-0.3-5,0.9-9.9,3.1-14.2
				c2.3-3.4,5.8-5.6,9.7-5.5H611z M470,337.7v-4h4.6l-3.3-12c-0.3-1.1-0.4-2.2-0.9-3.1c0-0.7-0.3-1.3-0.4-2v-4.9h1.8
				c0.4,0,0.7,0.3,0.9,0.7l11.1,36.2l0.3,0.9c0,0.3-0.3,0.3-0.9,0.3h-2.8c-0.7,0-0.9-0.3-0.9-0.7l-3.3-11.3
				C476,337.7,470,337.7,470,337.7z M517.2,349c0,0.4-0.3,0.7-0.7,0.7h-3.8c-0.4,0-0.8-0.3-0.8-0.7l-0.8-29.2v-3.4
				c0,1.3-0.3,2.7-0.8,4l-6.5,19.6c0,0.4-0.4,0.7-0.8,0.7H501c-0.4,0-0.7-0.3-0.8-0.7l-6.3-19.6c-0.4-1.3-0.7-2.7-0.8-4v0.2v3.5
				l-0.9,28.8c0,0.4-0.3,0.7-0.7,0.7H488c-0.3,0-0.7-0.3-0.7-0.4l0,0l2.2-36.9c0-0.4,0.3-0.7,0.7-0.7h3.7c0.3,0,0.4,0.3,0.7,0.7
				l6.7,19.2c0,0.3,0,0.4,0.3,0.9c0.3,0.9,0.4,1.8,0.4,2.7c0.3-0.4,0.3-1.1,0.7-2c0.4-0.9,0.3-1.3,0.3-1.6l6.7-19.2
				c0.3-0.4,0.3-0.7,0.7-0.7h3.6c0.4,0,0.7,0.3,0.7,0.7L517.2,349L517.2,349z M541.6,347.8c0,0.4-0.2,0.9-0.6,0.9h-15.3
				c-0.4,0-0.7-0.3-0.7-0.7v-35.6c0-0.4,0.3-0.7,0.7-0.7h15.5c0.2,0,0.4,0,0.4,0.3c0,0,0.2,0,0.2,0.3l0,0l-0.2,0.7l-0.8,2.4
				c0,0.3-0.2,0.4-0.8,0.4H529v12h11.3c0.4,0,0.7,0.3,0.7,0.7v2.6c0,0.4-0.3,0.7-0.7,0.7H529v13h11.8c0.2,0,0.6,0.3,0.6,0.4l0,0
				L541.6,347.8L541.6,347.8z M570.5,348.7c0,0.2-0.9,0-0.9,0h-3.1c0,0-0.9,0.2-0.9-0.3L553,321.2c-0.7-1.5-1.3-3.1-1.5-4.9l0,0
				c0.3,0.9,0.3,2,0.5,2.6v29.2c-0.1,0.4-0.3,0.7-0.8,1.4h-2.8c-0.4-0.8-0.4-1.4-0.4-1.4v-35.9c0-0.4,0.3-0.7,0.7-0.7h3.7
				c0.4,0,0.7,0.3,0.8,0.4l12.2,25.4c0.3,0.4,0.4,1.3,0.7,1.9c0.3,0.7,0.4,1.5,0.7,2.2h0.7c0-0.4-0.2-1.1-0.2-1.5
				c0-0.7-0.2-1.1-0.2-1.8v-26c0-0.4,0.3-0.7,0.7-0.7h2.5c0.5,0,0.9,0.4,0.9,0.9v36.1H570.5L570.5,348.7z M588,315.7V348
				c0,0.4-0.3,0.7-0.7,0.7h-2.6c-0.4,0-0.7-0.3-0.7-0.7v-32.3h-8.3c-0.4,0-0.7-0.3-0.7-0.7v-2.6c0-0.4,0.3-0.7,0.7-0.7h21
				c0.4,0,0.8,0.3,0.8,0.5l-0.2,0.7l-0.8,2.1c0,0.5-0.4,0.7-0.8,0.7H588z M471,311.4v5.5c0,0-0.8,0.9-0.8,1.5
				c-0.3,1.3-0.7,2.4-0.9,3.8l-3.3,12.5h5v4h-6.1l-2.6,10.2c-0.3,0.4-0.4,0.7-1.1,0.8h-3.3c-0.7-0.2-0.9-0.4-0.9-0.4l0.3-0.9
				l11-35.7c0-0.4,0.4-0.7,0.9-0.7L471,311.4z M420,335.3v-7c1.7-0.3,2.8-0.7,3.9-1.3c1.5-1.3,2.2-3.5,2-5.5c0-2.6-0.7-4.3-2-5.3
				c-1.1-0.7-2.4-0.9-2.9-0.9v-3.9c1.6,0,4,0.7,6.2,1.8c2.2,1.3,3.1,3.9,3.1,8.1c0.3,2.4-0.7,4.9-2.2,6.6c-1.3,1.8-3.1,2.8-5,3.8
				l9.2,16.7l0.3,0.7c-0.3,0.3-0.4,0.4-0.7,0.4l-3.5,0.7c-0.4,0-0.7-0.3-0.9-0.4l-7-14.5H420z M447,315.7V348c0,0.4-0.3,0.7-0.7,0.7
				h-2.6c-0.4,0-0.7-0.3-0.7-0.7v-32.3h-8.3c-0.4,0-0.7-0.3-0.7-0.7v-2.6c0-0.4,0.3-0.7,0.7-0.7h21c0.4,0,0.7,0.3,0.7,0.5l-0.2,0.7
				l-0.8,2.1c0,0.5-0.4,0.7-0.8,0.7C454.4,315.7,447,315.7,447,315.7z M420,310.9v4.1c-0.4-0.3-0.8-0.3-1.2-0.3H415v13h6v7.6
				l-1.9-3.6H415V348c0,0.3-0.3,0.7-0.5,0.7c0,0,0,0-0.3,0h-3.5c-0.3,0-0.7-0.3-0.7-0.4c0,0,0,0,0-0.3v-36.6c0-0.3,0.3-0.7,0.5-0.7
				c0,0,0.6,0,0.9,0C411.2,310.9,420,310.9,420,310.9z M392,337.7v-4h4.6l-3.3-12c-0.3-1.1-0.7-2.2-0.9-3.1c-0.3-0.7-0.4-1.3-0.4-2
				v-4.9h1.8c0.4,0,0.7,0.3,0.9,0.7l11.1,36.2l0.3,0.9c0,0.3-0.3,0.3-0.9,0.3h-3c-0.5,0-0.9-0.3-0.9-0.7l-3.3-11.3H392z M391,311.6
				v5.3c0,0,0.4,0.9,0.4,1.5c-0.4,1.1-0.7,2.4-0.9,3.8l-3.3,11.5h4.7v4h-5.6l-2.6,10.3c-0.3,0.4-0.4,0.7-0.8,0.7h-4.2
				c-0.4,0-0.8-0.3-0.8-0.3l0.3-0.8l10.8-35.2c0-0.4,0.3-0.7,0.8-0.7L391,311.6L391,311.6L391,311.6z M366,333.1v-3.9
				c1.3-0.3,2.6-0.7,3.8-1.5c1.5-1.8,2.2-3.9,2-6.4c0-2.6-0.7-4.3-2-5.3c-1.1-0.7-2.4-0.9-3.8-0.9v-3.9c2.4,0,4.9,0.7,7,1.8
				c2,1.3,3.1,3.9,3.1,8.1s-1.1,7.4-3.5,9.2C370.8,332.1,368.4,332.9,366,333.1L366,333.1z M314.3,344.7c2-0.2,3.8-1.6,4.6-3.3
				c1.5-3.8,2.2-7.7,2-11.6c0-5.7-0.9-9.6-2.4-11.6c-1.1-1.3-2.4-2.2-4.5-2.6v-4.2c3.1,0.3,5.7,1.5,8,3.3c2.6,2.4,3.9,7.4,3.9,14.9
				c0,6.8-1.3,11.6-3.8,14.7c-2,2.4-4.9,3.9-7.1,4.3v-4H314.3z M366,310.9v5.1c-0.4-0.3-0.8-0.3-1.2-0.3H361v14h3.2
				c0.8,0,1.2-0.3,1.8-0.3v3.3h-5V348c0,0.4-0.2,0.7-0.8,0.7h-3.5c-0.4,0-0.7-0.3-0.7-0.7v-36.6c0-0.4,0.3-0.7,0.7-0.7h9.3V310.9z
				 M350.4,347.7c0,1-0.3,1.2-0.7,1l0,0h-16.9c-0.4,0.4-0.9-0.3-0.9-0.3V312c0,0,0.3-0.7,0.9-0.3H350c0.3-0.4,0.4-0.4,0.7-0.1
				l0.3,0.3l-0.3,0.7l-0.9,2.4c-0.3,0.3-0.4,0.4-0.9,0.8h-13v12h11.3c0.4,0,0.7,0.3,0.7,0.7v2.6c0,0.4-0.3,0.7-0.7,0.7H337v14h13.3
				c0.3,0,0.7,0.3,0.7,0.4v-0.5v2.1H350.4L350.4,347.7z M310.7,345.5c1.2,0,2.1,0,3.3-0.3v4.2c-1.3,0.3-2.6,0.3-3.9,0.3h-6.4
				c-0.4,0-0.7-0.3-0.7-0.7v-36.6c0-0.4,0.3-0.7,0.7-0.7h6.8c1.2,0,2.4,0,3.5,0.3v4.2c-1.2-0.4-2.4-0.4-3.7-0.4H307v30L310.7,345.5z
				"/>
			<path class="st3" d="M680,439.7v-2h2.2l-2.2-7.4v-1.6h1.3l4.4,14h-2.4l-1-3C682.4,439.7,680,439.7,680,439.7z M680,428.7v1.6
				l-2.2,7.4h2.2v1h-2.2l-1,3H675l4.1-13C679.2,428.7,680,428.7,680,428.7z M668,442.4v-1.5c1,0,1.6-0.3,2.3-0.7
				c0.4-0.4,0.7-1.1,0.7-1.8c0-0.7-0.3-1.5-0.9-2c-0.4-0.4-1.1-0.7-2.1-0.7v-1h0.5c0.4-0.5,1.1-0.8,1.3-1.2c0.4-0.4,0.4-1.1,0.4-1.5
				c0-0.7-0.3-1.1-0.4-1.5c-0.4-0.4-1.1-0.4-1.8-0.4v-1.3h0.8c0.6,0,1.2,0,1.8,0.3c0.4,0.3,0.8,0.7,1,0.9c0.2,0.4,0.2,0.7,0.4,1.1
				v0.9c0,0.7-0.2,1.5-0.4,2.2c-0.4,0.7-1,1.1-1.6,1.1v0c0,0,1.4,0.4,1.8,0.9c0.4,0.7,0.7,1.3,0.7,2.2c0,1.5-0.3,2.6-1.1,3.1
				c-0.9,0.6-2,1.1-3.1,1.1H668z M668,428.9v0.8h-2v4h2v2h-2v5h2v2h-4v-14h4V428.9z M621,442.7v-1.3l0,0c0.4,0,0.9-0.3,1.3-0.4
				c0.3-0.4,0.4-0.9,0.4-1.3h1.8c0,0.9-0.3,1.8-0.9,2.2C623,442.7,621.9,442.9,621,442.7L621,442.7z M621,437.7v-1h1.7
				c0,0,0-1.8-0.4-2.7c-0.4-0.4-0.9-0.7-1.2-0.7v-1.1l0,0c1.2,0,2.4,0.3,2.8,1.1c0.4,1.1,1.2,3.8,1.2,3.8v0.6H621z M630.4,441.7
				c-0.8,0-1.6-0.2-2.2-0.8c-0.6-0.6-0.8-1.4-0.8-2.2h1.6c0,0.4,0.2,0.8,0.2,1.4c0.2,0.4,0.6,0.4,1.2,0.4c0.4,0,0.8-0.2,1.2-0.4
				c0.2-0.2,0.4-0.6,0.4-1s-0.6-0.8-1.6-1.4c-0.8-0.4-1.4-0.8-2.2-1.4c-0.4-0.4-0.8-0.8-0.8-1.4s0.2-1.2,0.8-1.8s1.4-0.8,2.2-0.8
				c0.8,0,1.4,0.2,2,0.6c0.6,0.4,0.8,1.2,0.8,1.8h-1.6c0-0.8-0.4-1.4-1.2-1.4c-0.4,0-0.8,0.2-1,0.4c-0.2,0.2-0.2,0.4-0.2,0.8
				c0,0.4,0.4,0.8,1.4,1.4c1,0.6,1.8,1,2.2,1.4c0.6,0.4,0.8,1,0.8,1.6c0,0.8-0.2,1.6-0.8,2C631.8,441.7,631,441.8,630.4,441.7
				L630.4,441.7z M640,435.7h4v2h-4V435.7z M651.6,428.7h2.4v8.8c-0.2,1.1,0,2,0.6,2.8c0.4,0.7,1,0.9,1.9,0.9
				c0.8,0.3,1.5-0.3,1.9-0.9c0.4-0.9,0.6-1.8,0.6-2.8v-8.8h2v8.6c-0.6,1.5-0.8,2.8-1.7,4.2c-0.9,0.9-2,1.3-3.3,1.3
				c-1.1,0-2.4-0.4-3.1-1.3c-0.9-1.1-1.3-2.6-1.1-4.2L651.6,428.7z M620,432.5v1.1l0,0c0,0-0.4,0.3-0.6,0.9
				c-0.4,0.7-0.4,1.5-0.4,2.2h2v1h-2c0,1.3,0,2.2,0.4,3.1c0.3,0.4,0.9,0.7,0.6,0.7v1.3c-0.1,0-1.2-0.3-1.9-0.9
				c-0.9-1.1-1.1-2.6-0.9-3.9c0-1.3,0.3-2.6,0.9-3.8C618.2,432.9,619.4,432.5,620,432.5z M606,442.1v-0.9c0.4,0,0.8-0.4,1.1-0.8
				c0.4-0.8,0.7-1.7,0.7-2.7H606v-1.1c0.7-0.2,1.1-0.2,1.7-0.2c0-0.7,0-1.2-0.2-1.9c-0.2-0.4-0.7-0.8-1.2-0.8H606v-2h0
				c0.9,0.5,1.8,0.7,2.4,1.3c0.4,0.4,0.9,1.3,0.6,2v4.6c0.3,0.9,0.5,2.1,0.5,2.1H608v-1.6c-0.3,0.4-0.4,0.9-0.9,1.3
				C606.4,442.1,606.2,442.1,606,442.1z M614,442.7h-2v-14h2V442.7z M606,432.5v1.1c-0.6,0.3-1.1,0.3-1.1,0.4
				c-0.4,0.3-0.4,0.7,0.1,1.1v0.6h-2.3c0-1.2,0.3-2.1,0.9-2.5c0.7-0.5,1.4-0.7,2.2-0.7H606z M605,436.4v1.1c0.5,0.3,0.1,0.3-0.1,0.4
				c-0.7,0.3-0.9,0.7-0.9,1.5c0,0.4,0.3,0.9,0.3,1.3c0.3,0.3,0.7,0.4,1.1,0.9h0.5v1h-1c-0.9,0-1.5-0.5-2-1.1
				c-0.4-0.7-0.7-1.5-0.7-2.4c-0.3-1.1,0.4-2,1.3-2.4c0.8-0.2,1.4-0.4,2.1-0.4H605z M573,442.4v-1.3c0,0,0.9-0.4,1.3-0.9
				c0.4-0.9,0.7-2,0.4-2.6H574v-1.4c-0.4-0.3,0.1-0.3,0.8-0.3c0-0.7,0-1.3-0.3-2c-0.3-0.4-0.7-0.9-1.3-0.4h0.8v-2h-0.8
				c0.9,0.5,1.8,0.7,2.4,1.3c0.4,0.7,0.7,1.3,0.4,2v4.6c0.3,0.9,0.5,2.1,0.5,2.1H575v-1.4c-0.5,0.4-0.9,0.9-1.1,1.3
				C573.7,442.4,573.6,442.4,573,442.4L573,442.4z M580,432.7v-2l2-0.7v2.7h2v1h-2v6.1c-0.6,0.4-0.6,0.7-0.3,0.9
				c0.3,0.4,0.4,0.4,1.1,0.4l1.2-0.3v0.9h-0.9c-0.3,0.2-0.5,0.2-0.9,0.2c-1.4,0-2.1-0.7-2.1-1.7v-6.5h-2v-1H580z M590.5,432.7h1.5
				v10h-1v-1.2c-1,1.4-2.5,1.7-3.7,0.9c-0.8-0.5-1.3-1.4-1.3-2.4v-7.4h1v6.8c0,0.4,0.3,1.2,0.4,1.6c0.3,0.4,0.8,0.7,1.3,0.7
				c0.4,0,0.8-0.3,1.3-0.7c0.4-0.4,0.7-1.2,0.7-1.9L590.5,432.7L590.5,432.7z M598,434c-0.3-0.7,0.1-1.1,0.5-1.3
				c0.7-0.3,1.3-0.3,2.5-0.3v1.2h-1.3c-0.7,0.3-1.3,0.6-1.8,1c-0.4,0.7,0.1,2,0.1,2v6h-2v-10h2V434z M573,432.5v1.1
				c-0.4,0.3-0.8,0.3-0.8,0.4c-0.4,0.3-0.4,0.7-0.2,1.1v0.6h-1.8c-0.3-1.2,0.3-1.8,0.9-2.5C571.5,432.7,572.5,432.5,573,432.5
				L573,432.5z M573,436.4v1.1c-0.2,0.3-0.6,0.3-0.8,0.4c-0.7,0.3-0.9,0.7-0.9,1.5c0,0.4,0.3,0.9,0.3,1.3c0.3,0.4,0.9,0.4,1.3,0.9
				h1.1v1h-1.5c-0.9-0.2-1.5-0.5-2-1.1c-0.4-0.7-0.7-1.5-0.7-2.4c-0.3-1.1,0.4-2,1.3-2.4C571.8,436.7,572.5,436.4,573,436.4
				L573,436.4z M523,442.4v-1.3c0,0,1.6-0.4,1.8-0.9c0.4-0.9,0.4-2,0.4-2.6H523v-1.4c1.1-0.3,1.5-0.3,2.2-0.3c0-0.7,0-1.3-0.3-2
				c-0.3-0.7-0.9-0.9-1.3-0.4H523v-2h0.7c0.9,0.5,1.8,0.7,2.4,1.3c0.4,0.7,0.7,1.3,0.9,2v4.6c-0.2,0.9,0,2.1,0,2.1h-2v-1.4
				c0,0.4-0.2,0.9-0.6,1.3c-0.2,0.8-0.4,0.8-0.9,0.8H523z M533.2,441.7c-0.8,0-1.6-0.2-2.2-0.8c-0.6-0.6-1-1.4-0.8-2.2h1.6
				c0,0.4,0,0.8,0.2,1.4c0.4,0.4,0.8,0.6,1.2,0.4c0.4,0,0.8-0.2,1-0.4c0.2-0.2,0.4-0.6,0.4-1s-0.4-0.8-1.4-1.4
				c-0.8-0.4-1.6-0.8-2.2-1.4c-0.4-0.4-0.6-0.8-0.6-1.4s0.2-1.4,0.8-1.8c0.6-0.6,1.4-0.8,2.4-0.8c0.8,0,1.4,0.2,2,0.6
				c0.4,0.4,0.8,1.2,0.8,1.8h-1.6c0-0.8-0.4-1.4-1.2-1.4c-0.4,0-0.8,0.2-1,0.4c-0.4,0.2-0.4,0.6-0.4,0.8c0,0.2,0.6,0.8,1.6,1.4
				s1.8,1,2.2,1.4c0.6,0.4,0.8,1,0.8,1.6c0,0.8-0.2,1.6-0.8,2C534.8,441.7,534,441.8,533.2,441.7L533.2,441.7z M546.5,440.3l2.4-7.6
				h1.8l-4.3,13h-1.5l1.2-3.9l-3.5-10.1h2L546.5,440.3L546.5,440.3z M566,428.7v14h-1.9l-5.1-12.3v12.3h-2v-14h2.8l5.2,11.4v-11.4
				h1.5H566z M523,432.5v1.1c0.1,0.3-0.3,0.3-0.3,0.4c-0.4,0.3-0.4,0.7-0.7,1.1v0.6h-1.3c-0.3-1.2,0.3-1.8,0.9-2.5
				c0.4-0.5,1.3-0.7,2-0.7H523z M523,436.4v1.1c0.3,0.3-0.2,0.3-0.3,0.4c-0.7,0.3-0.9,0.7-0.9,1.5c0,0.4,0.3,0.9,0.3,1.3
				c0.3,0.4,0.9,0.4,1.3,0.9h0.7v1h-1.1c-0.7-0.2-1.5-0.5-2-1.1c-0.4-0.7-0.7-1.5-0.7-2.4c-0.3-1.1,0.4-2,1.3-2.4
				c0.7-0.2,1.3-0.4,2-0.4H523z M497,442.4v-1.3c0,0,1.7-0.4,2-0.9c0.4-0.9,0.7-1.8,0.7-2.6H497v-1.4c1.5-0.3,2-0.3,2.6-0.3
				c0-0.7,0-1.3-0.3-2c-0.3-0.7-1.4-0.9-1.4-0.9v-0.4v-1.1h0.2c0.8,0,1.6,0.3,2.2,0.9c0.4,0.7,0.6,1.3,0.6,2v4.7
				c0,0.9,0.2,1.6,0.2,2.4H500v-1.4c-0.4,0.4-0.8,0.9-1.2,1.3c-0.5,0.8-0.7,0.8-0.9,0.8H497z M509.7,435.4c0-0.7,0-1.1-0.4-1.5
				c-0.3-0.3-0.4-0.4-0.9-0.4c-0.7,0-1.1,0.3-1.3,0.7c-0.4,0.7-0.7,1.5-0.7,2.6s0,2.2,0.4,3.3c0.3,0.7,0.9,1.1,1.5,0.9
				c0.4,0,0.9-0.3,1.1-0.7s0.3-0.9,0.3-1.5h1.5c0,0.9-0.3,2-0.9,2.6c-0.7,0.4-1.3,0.9-2,0.9c-1.1,0-2-0.3-2.6-0.9
				c-0.9-1.1-1.1-2.6-0.9-3.9c0-1.3,0.3-2.6,0.7-3.8c0.7-0.9,1.8-1.3,3.1-1.3c2,0,3.1,1.1,3.1,3.3L509.7,435.4z M515,432.7v-2l2-0.7
				v2.7h2v1h-2v6.1c-0.7,0.4-0.7,0.7-0.5,0.9c0.3,0.4,0.4,0.4,1.1,0.4l1.4-0.3v0.9h-0.9c-0.3,0.2-0.4,0.2-0.9,0.2
				c-1.3,0-2.3-0.7-2.3-1.7v-6.5h-2v-1H515z M498,432.5v1.1c-0.6,0.3-1,0.3-1.3,0.4c-0.3,0.3-0.3,0.7,0.3,1.1v0.6h-2.3
				c0-1.2,0.3-1.8,0.9-2.5C496.1,432.7,497,432.5,498,432.5z M497,436.4v1.1c0.6,0,0.2,0.3,0,0.4c-0.7,0.3-0.9,0.7-0.9,1.5
				c0,0.4,0.3,0.9,0.4,1.3c0.3,0.4,0.7,0.4,1.1,0.9h0.3v1h-0.9c-0.7-0.2-1.5-0.5-2-1.1c-0.4-0.7-0.7-1.5-0.7-2.4
				c0-1.3,0.3-2,1.3-2.4c0.6-0.2,1.3-0.4,2.1-0.4H497z M456,442.6v-1.3c0,0,0.4-0.4,0.8-0.9c0.4-0.9,0.7-2,0.4-2.7H456v-1.2
				c0.2-0.3,0.6-0.3,1.3-0.3c0-0.7,0-1.3-0.3-2c-0.3-0.7-0.9-0.9-1.3-0.6h0.3v-1h0.2c0.8,0,1.6,0.3,2.2,0.9c0.4,0.7,0.6,1.3,0.6,2
				v4.7c0,0.9,0.2,1.6,0.2,2.4H457v-2.1c-0.2,0.4-0.3,1.1-0.8,1.3c-0.3,0.5-0.5,0.5-0.7,0.7H456z M465.4,442c-0.9,0-1.8-0.3-2.4-0.9
				c-0.7-0.7-0.9-1.6-0.9-2.4h2c0,0.4,0.2,0.8,0.2,1.4c0.2,0.4,0.6,0.4,1.2,0.4c0.4,0,0.8-0.2,1.2-0.4c0.2-0.2,0.4-0.6,0.4-1
				s-0.6-0.8-1.6-1.4c-0.8-0.4-1.4-0.8-2.2-1.4c-0.4-0.4-0.8-0.8-0.8-1.4s0.2-1.2,0.8-1.8c0.6-0.6,1.4-0.8,2.2-0.8s1.4,0.2,2,0.6
				c0.6,0.4,1,1.2,0.8,1.8h-1.5l-1.3-2h-0.3c-0.4,0-0.9,0.3-1.1,0.4c-0.3,0.3-0.4,0.7-0.3,0.9c0,0.3,0.4,0.9,1.6,1.6
				c0.9,0.4,1.8,0.9,2.7,1.6c0.4,0.3,0.7,0.9,0.7,1.8c0,0.9-0.3,1.8-0.9,2.3C466.9,441.8,466.1,442,465.4,442L465.4,442z M476,442.7
				v-14h7v2h-6v4h5v1h-5v5h6v2h-7.3H476z M492.7,442.7h-2l-2.3-4.1l-2.3,4.1h-1.9l3.2-5.2l-2.9-4.8h2l2,3.6l2-3.6h1.9l-2.9,4.8
				L492.7,442.7z M456,432.8v1.1c-0.2,0.3-0.6,0.3-0.8,0.4c-0.2,0.3-0.4,0.7-0.2,1.1v0.3h-1.6c0-0.9,0.2-1.5,0.8-2.2
				C454.6,433,455.2,432.8,456,432.8L456,432.8z M455,436.4v1.1c0.3,0,0.1,0.3-0.3,0.4c-0.7,0.3-0.9,0.7-0.9,1.5
				c0,0.4,0.3,0.9,0.4,1.3c0.3,0.4,0.7,0.4,1.1,0.9h0.6v1h-1c-0.7-0.2-1.5-0.5-2-1.1c-0.4-0.7-0.4-1.5-0.4-2.4c0-1.3,0.3-2,1.3-2.4
				c0.3-0.2,1-0.4,1.7-0.4H455z M421,442.7v-1.3l0,0c0.4,0,0.9-0.3,1.3-0.4c0.3-0.4,0.4-0.9,0.4-1.3h1.5c0.3,0.9-0.3,1.5-0.9,2.2
				C422.7,442.5,421.9,442.7,421,442.7L421,442.7z M421,437.7v-1h1.9c0,0,0-1.6-0.4-2.4c-0.3-0.4-0.9-0.7-1.5-0.7v-1.1l0,0
				c1.5,0,2.4,0.3,2.8,1.1c0.7,1.1,0.2,3.8,0.2,3.8v0.3H421z M433,442.4v-6.5c0-0.5-0.3-1.2-0.5-1.7c-0.3-0.5-0.9-0.5-1.4-0.5
				c-0.7,0-1.4,0.3-1.7,0.9c-0.5,0.7-0.5,1.4-0.5,2.1v5.9h-1v-8c0,0-0.4-1.3-0.4-2h1.4v1h0.4c0,0,0.4-0.5,0.9-0.8
				c0.4-0.3,1.1-0.3,1.5-0.3c0.7,0,1.5,0.3,2,0.9c0.4,0.6,0.7,1.5,0.3,2.4v6.6L433,442.4z M442.8,435.4c0-0.7-0.3-1.1-0.4-1.5
				c-0.3-0.4-0.7-0.4-0.9-0.4c-0.7,0-1.1,0.3-1.3,0.7c-0.4,0.9-0.7,1.8-0.4,2.6c0,1.1,0,2.2,0.3,3.3c0.3,0.7,0.9,1.1,1.5,0.9
				c0.4,0,0.9-0.3,1.1-0.7c0.3-0.4,0.3-0.9,0.3-1.5h1.8c0,0.9-0.4,2-1.1,2.6c-0.7,0.4-1.3,0.9-2,0.9c-1.1,0-2-0.3-2.6-0.9
				c-0.9-1.1-1.1-2.6-0.9-3.9c0-1.3,0.3-2.6,0.9-3.8c0.3-0.9,1.3-1.3,2.8-1.3c2,0,3.1,1.1,3.1,3.3L442.8,435.4z M450,442.7h-2v-10h2
				v9.7V442.7z M448,428.7h2v2h-2V428.7z M420,432.5v1.2h-0.2c-0.4,0-1,0.4-1.2,0.8c-0.4,0.6-0.4,1.4-0.4,2.2h1.8v1h-0.8
				c0,1.3,0,2.2,0.4,3.1c0.3,0.4,0.9,0.7,1.4,0.7v1.3c-1,0-2.1-0.3-2.8-0.9c-0.9-1.1-1.1-2.6-0.9-3.9c0-1.3,0.3-2.6,0.7-3.8
				c0.9-1.3,2-1.7,3.1-1.7H420z M391,442.6v-0.9h0.3c0.4-0.4,0.9-0.7,1.1-0.9c0.3-0.4,0.4-0.9,0.4-1.1h1.8c0,0.7-0.3,1.7-0.9,2.1
				C393,442.4,392.1,442.6,391,442.6L391,442.6z M391,438.7v-2h2c0-0.6,0-1.6-0.4-2.4c-0.4-0.4-0.9-0.7-0.6-0.7v-0.9h-0.5
				c1.1-0.3,2,0.3,2.6,1.2c0.7,1.2,0.9,2.5,0.9,3.9v0.9H391z M408,432.7V431c0-0.3-0.3-0.4-0.3-0.9c-0.3-0.3-0.5-0.4-0.9-0.4h-0.9
				c-0.7,0-1.2,0-1.4,0.4c-0.3,0.5-0.7,0.5-0.9,0.9c-0.3,0.5-0.3,0.7-0.3,1.2c0,0.5-0.3,0.9-0.3,1.6v4c0,1.2,0.3,2.1,0.7,3.2
				c0.5,0.4,1.2,0.7,2.1,0.7c0.7,0,1.2-0.3,1.7-0.7c0.5-0.7,0.7-1.4,0.7-2.3h1.8c0,1.1-0.3,2.4-0.9,3.3c-0.7,0.7-1.8,1.1-2.8,1.1
				c-1.1,0-2.2-0.3-3.1-0.9c-1.1-1.3-1.5-2.8-1.3-4.6v-3.9c-0.3-1.3,0.3-2.8,1.1-3.9c0.9-0.9,2.2-1.3,3.3-1.1c1.1,0,2,0.3,2.8,0.9
				c0.7,0.9,0.9,2,0.9,3.1L408,432.7z M415,442.7h-2v-10h2v9.7V442.7z M413,428.7h2v2h-2V428.7z M391,432.7v1.1l0,0
				c-0.7,0-1.1,0.3-1.3,0.9c-0.4,0.7-0.4,1.5-0.4,2.1h2.7v1h-2.9c0,0,0,2.2,0.4,3.1c0.3,0.4,0.9,0.7,0.5,0.7v1.3
				c-0.1,0-1-0.3-1.6-0.9c-0.9-1.1-1.1-2.6-0.9-3.9c-0.3-1.3,0-2.6,0.4-3.9C388.6,432.9,389.7,432.5,391,432.7L391,432.7z
				 M381,442.8v-1.5l0,0c0.9,0,1.5-0.4,1.7-1.1c0.3-0.9,0.3-2,0.3-3.1c0-0.9,0-1.5-0.3-2.4c-0.3-0.7-0.7-0.9-0.7-0.9l0,0v-1.3
				c0.2,0.3,1,1.1,1,1.1v-5h1v14h-1v-1.1c-0.2,0.4-0.4,0.9-0.8,0.9C381.4,442.6,381,442.8,381,442.8L381,442.8z M381,432.7v1.1
				c-0.7,0-1.3,0.4-1.6,0.9c-0.3,0.9-0.4,2-0.3,3.1c0,0.9,0,1.8,0.3,2.7c0.3,0.7,0.9,1.1,1.6,0.9v1.3h-0.4c-0.9,0-1.8-0.3-2.3-0.9
				c-0.7-0.7-0.9-2-0.9-3.8c0-1.3,0.3-2.7,0.4-4c0.3-0.9,1.3-1.3,2.7-1.3L381,432.7L381,432.7z M367,442.6v-1.3l0,0
				c0.6,0,1.2-0.4,1.2-1.1l0,0c0.3-0.9,0.4-2,0.3-3.1c0-0.9,0-1.5-0.3-2.4c-0.3-0.7-0.9-1.1-1.2-0.9l0,0v-1.3c0.6,0.3,1,1.1,1,1.1
				v-5h2v14h-2v-1.3c0.4,0.4,0,0.7-0.2,0.9c-0.5,0.2-0.9,0.3-0.9,0.3H367z M367,432.7v1.1c-0.7,0-1.3,0.4-1.6,0.9
				c-0.3,0.9-0.4,2-0.3,3.1c0,0.9,0,1.8,0.3,2.7c0.3,0.7,0.7,0.9,1.6,0.9v1.3h-0.4c-0.9,0-1.8-0.3-2.3-0.9c-0.9-1.1-1.1-2.4-0.9-3.8
				c0-1.3,0.3-2.7,0.7-4c0.3-0.9,1.3-1.3,2.7-1.3L367,432.7L367,432.7z M356,442.6v-1.3c0,0,1.7-0.4,1.9-0.9
				c0.7-0.9,0.9-1.8,0.7-2.7H356v-1.2c1.5-0.3,1.9-0.3,2.6-0.3c0-0.7,0-1.3-0.3-2s-1.4-0.9-1.4-0.9l0,0v-0.7h0.3
				c0.9-0.4,1.8-0.1,2.4,0.5c0.4,0.4,0.9,1.3,0.3,2v4.6c0.6,0.9,0.8,3,0.8,3H358v-2.1c0.2,0.4-0.2,0.9-0.4,1.3
				c-0.5,0.5-0.8,0.5-0.8,0.7H356z M357,432.7v1.1c-0.6,0.3-1,0.3-1.3,0.4c-0.3,0.2-0.3,0.7,0.3,1.1v0.4h-2.3c0-1,0.3-1.7,0.9-2.4
				c0.5-0.7,1.4-0.9,2.3-0.7H357z M356,436.7v1.1c0.6,0.3,0.1,0.3,0,0.4c-0.3,0.3-0.9,0.7-0.9,1.5c0,0.4,0,0.9,0.3,1.3
				c0.3,0.3,0.7,0.4,1.1,0.7h0.5v1h-1.1c-0.7,0-1.5-0.2-2-0.8c-0.4-0.7-0.7-1.5-0.7-2.4c-0.3-0.9,0.4-2,1.3-2.4
				C355.3,436.7,356,436.4,356,436.7z M316,443.1v-1.9c0,0,1.1-0.4,1.4-0.9c0.4-0.9,0.7-1.8,0.7-2.7h-2v-1.2c0.9-0.3,1.4-0.3,2-0.3
				c0-0.7,0-1.3-0.3-2c-0.3-0.7-0.8-0.9-0.8-0.9l0,0v-0.7h-0.2c0.9-0.4,1.8-0.1,2.4,0.5c0.4,0.4,0.9,1.3,0.9,2v4.6
				c0,0.9,0.2,3,0.2,3H318v-1.5c-0.2,0.4-0.4,0.9-0.8,1.3C316.4,443,316.2,443,316,443.1L316,443.1z M328.1,436.4
				c0-0.7,0-1.1-0.4-1.5c-0.3-0.4-0.7-0.4-0.9-0.4c-0.4,0-1.1,0.3-1.3,0.7c-0.4,0.9-0.7,1.8-0.4,2.6c0,1.1,0,2.2,0.3,3.3
				c0.3,0.7,0.9,0.9,1.5,0.9c0.4,0,0.9-0.3,1.1-0.7s0.3-0.9,0.3-1.5h1.8c0.3,0.9-0.3,2-1.1,2.6c-0.7,0.4-1.3,0.9-2,0.9
				c-0.9,0-2-0.3-2.6-0.9c-0.9-1.1-1.1-2.6-0.9-3.9c0-1.3,0.3-2.6,0.9-3.8c0.7-0.9,1.8-1.3,2.8-1.3c2,0,3.1,1.1,3.1,3.3L328.1,436.4
				z M338.2,432.7h1.8v8c0,0.7,0,1.3,0.3,2H338v-1.2c-0.7,0.9-1.6,1.3-2.5,1.3c-1.2,0.3-2.5-0.7-2.5-1.9c0-0.3,0-0.4,0-0.7v-7.6h2
				v6.5c-0.1,0.4-0.1,0.9,0.2,1.5c0.4,0.7,1.5,0.9,2.2,0.3c0.3,0,0.3-0.3,0.3-0.3c0.4-0.4,0.7-1.1,0.4-1.8v-6.3H338.2z M345,442.7
				h-2v-14h2v13.7V442.7z M348,432.7v-2l2-0.7v2.7h1v1h-1v5.9c0,0.4,0,0.9,0.2,0.9c0.2,0,0.6,0.4,1.2,0.4l0.6-0.3v2.1h-0.7
				c-0.3,0-0.5,0.3-0.9,0.3c-1.4,0-2.4-0.7-2.4-1.9v-7.4h-1v-1.4L348,432.7z M304,442.7v-14h7v2h-5v4h5v2h-5v6H304L304,442.7z
				 M316,432.7v1.1c-0.2,0.3-0.6,0.3-0.9,0.4c-0.3,0.2-0.4,0.7-0.1,1.1v0.4h-1.9c0-1,0.3-1.7,0.9-2.4c0.5-0.7,1.4-0.9,2.3-0.7H316z
				 M316,436.7v1.1c0,0.3-0.4,0.3-0.6,0.4c-0.3,0.3-0.9,0.7-0.9,1.5c0,0.4,0,0.9,0.3,1.3c0.3,0.3,0.7,0.4,1.1,0.7h1.1v1h-1.7
				c-0.7,0-1.5-0.2-2-0.8c-0.4-0.7-0.7-1.5-0.7-2.4c-0.3-0.9,0.4-2,1.3-2.4c0.7-0.4,1.1-0.4,1.8-0.7L316,436.7z"/>
			<rect x="304" y="410.7" class="st3" width="382" height="4"/>
			<path class="st3" d="M614,397.4v-3.8l0,0c2.6,0.3,5-1.5,5.9-3.9c1.3-3.9,1.8-7.9,1.5-12c0.3-4.2-0.3-8.1-1.5-12
				c-0.9-2.4-3.3-4.2-5.9-3.9l0,0v-3.5l0,0c3.8-0.3,7.4,1.8,9.2,5.3c2.2,4.3,3.3,9.5,3.1,14.5c0.3,5-0.7,9.9-3.1,14.5
				C621.5,395.4,617.8,397.6,614,397.4L614,397.4z M653.8,395.9c0,0.4-0.2,0.7-0.6,0.8h0.7h-3.1c-0.4,0-0.7-0.3-0.9-0.7l-12.8-27.4
				c-0.7-1.5-1.1-3.4-1.3-4.9h-0.2c0.2,1.1,0.2,2,0.4,2.7v29.5c0,0.5-0.4,0.9-0.9,0.9h-2.5c-0.4,0-0.7-0.3-0.7-0.9v-36.5
				c0-0.4,0.3-0.7,0.7-0.7h3.7c0.2,0,0.7,0.3,0.8,0.4l11.8,25.4c0.2,0.7,0.4,1.3,0.7,1.9s0.4,1.5,0.7,2.2h0.2c0-0.4-0.2-1.1-0.2-1.5
				c-0.2-0.7-0.2-1.3-0.2-1.9v-25.9c0-0.4,0.3-0.7,0.7-0.7h2.5c0.4,0,0.8,0.3,0.8,0.7L653.8,395.9z M614,358.1v3.8
				c-2.6,0-5,1.5-5.9,3.9c-1.3,3.8-1.8,7.9-1.5,11.9c-0.3,4.2,0.3,8.1,1.5,12c0.9,2.6,3.3,4.2,5.9,3.9v3.8c-3.9,0.3-7.4-1.8-9.5-5.3
				c-2.2-4.3-3.3-9.5-3.1-14.5c-0.3-5,0.7-9.9,3.1-14.5C606.3,359.9,610.1,357.9,614,358.1L614,358.1z M544,385.7v-4h4.6l-3.3-12
				c-0.3-1.3-0.4-2.2-0.9-3.1c-0.3-0.7-0.3-1.3-0.4-2v-0.6v-5.4h1.8c0.4,0,0.7,0.3,0.9,0.4l11.1,36.4l0.3,0.9c0,0.3-0.3,0.3-0.9,0.3
				h-3.9c-0.7,0-0.8-0.2-0.8-0.7l-3-10.3C549.5,385.7,544,385.7,544,385.7z M581.4,392.3c0.3,0.3,0.4,0.4,0.4,0.9s-0.9,1.5-2.8,2.6
				c-1.8,1.1-3.9,1.8-5.9,1.8c-4.2,0.3-7.9-2-9.9-5.5c-2.2-4.6-3.3-9.5-3.1-14.5c-0.3-4.9,0.9-9.6,2.8-14.1c1.8-3.5,5.5-5.5,9.5-5.3
				c2.2,0,4.2,0.4,5.9,1.5c2,1.1,2.8,2,2.8,2.6c0,0.3-0.3,0.4-0.3,0.7l-1.1,1.5c-0.3,0.3-0.4,0.4-0.7,0.4c-1.1-0.9-2.2-1.8-3.3-2.4
				c-1.1-0.6-2.2-0.9-3.3-0.9c-2.6-0.3-4.9,1.3-5.9,3.8c-1.3,3.8-1.8,7.4-1.5,11.4c-0.3,4.2,0.4,8.5,2,12.5c0.7,2.6,3.1,4.3,5.9,4.3
				c1.5,0,3.1-0.7,4.3-1.5c0.9-0.4,1.5-1.1,2.4-1.5c0.3,0,0.3,0,0.3,0.3l0.3,0.3L581.4,392.3L581.4,392.3z M600,395.8
				c0.1,0.4-0.6,0.9-0.6,0.9h-14.5c0,0-0.7-0.3-0.9-0.7l0,0v-2.2c0.1-0.4,0.3-0.7,0.9-1.1h5.1v-30h-5.1c-0.4-0.3-0.9-0.5-0.9-1v-2.2
				c0.1-0.4,0.9-0.8,0.9-0.8h14.5c0,0,0.7,0.4,0.6,0.8v2.2c0.1,0.4-0.2,0.7-0.6,1H594v30h5.4c0.4,0.4,0.7,0.7,0.6,1.1V395.8z
				 M543,358.7v5.6c0,0,0.6,1.1,0.6,1.5c0,0.3-0.3,1.5-0.9,3.8l-3.3,12.1h4.5v4h-5.5L536,396c-0.2,0.4-0.7,0.7-1.1,0.7h-3.3
				c-0.2,0-0.4-0.3-0.6-0.3v-1.1l9.9-36.2c0.2-0.3,0.6-0.4,0.8-0.4H543z M531,360.1L531,360.1l0.3-0.9c0-0.3-0.3-0.3-0.3-0.3V360.1z
				 M531,359v1.1l-0.9,2c-0.3,0.4-0.3,0.7-0.9,0.7H521v33.1c0,0.4-0.2,0.7-0.6,0.9l0,0h-2.8c-0.4,0-0.6-0.3-0.6-0.9v-33.1h-8.3
				c-0.4,0-0.7-0.3-0.7-0.7v-2.6c0-0.4,0.3-0.7,0.9-0.7H531V359z M531,395.7l-0.3,0.9c0,0,0,0.3,0.3,0.3l0,0V395.7z M466,380.5v-3.9
				c1.3,0,2.6-0.7,3.8-1.5c1.5-1.5,2.4-3.9,2-6.1c0-2.6-0.7-4.3-2-5.3c-1.1-0.7-2.4-1.1-3.8-1.1v-3.8c2.4,0,4.9,0.4,7,1.8
				c2.2,1.1,3.1,3.9,3.1,8.1c0.3,3.3-0.9,6.8-3.3,9.2C470.9,379.6,468.6,380.5,466,380.5L466,380.5z M503.9,386.3
				c0.3,3.1-0.9,5.9-3.1,8.1c-2.7,2.2-5.8,3.1-9.1,3.1c-4.2,0-7.1-0.9-8.9-2.8c-2-2.2-3.1-5.3-2.8-8.4v-26.9c0-0.4,0.3-0.7,0.9-0.7
				h3.5c0.4,0,0.7,0.3,0.7,0.7v26.8c-0.2,2,0.4,3.9,1.5,5.3c1.2,1.3,3.2,2.2,5.1,2c4.9,0,7.4-2.4,7.4-7.2v-26.8
				c0-0.4,0.3-0.7,0.7-0.7h3.5c0.4,0,0.9,0.3,0.9,0.7L503.9,386.3z M467,359.7v3h-7l0,14h3.9c0.7,0,1.3,0,2.1-0.3v4
				c-0.7,0.3-1.2,0.3-1.9,0.3H460v15.1c0,0.4-0.3,0.7-0.7,0.9l0,0h-3.6c-0.4,0-0.7-0.3-0.7-0.7v-36.6c0-0.3,0.3-0.7,0.5-0.7h0.9h9.7
				v1H467z M403,397.4v-3.8l0,0c2.6,0.3,5-1.5,5.9-3.9c1.3-3.9,1.8-7.9,1.5-12c0.3-3.9-0.4-8.1-1.5-11.9c-0.9-2.6-3.3-4.2-5.9-3.9
				l0,0v-3.8l0,0c3.9-0.3,7.4,1.8,9.5,5.3c2.2,4.3,3.3,9.5,3.1,14.2c0.3,5-0.9,10.1-3.1,14.5C410.5,395.7,407,397.6,403,397.4
				L403,397.4z M448.8,395.9c0,0.4-0.2,0.8-0.6,0.8h-2.8c-0.4,0-0.6-0.2-0.6-0.8l-0.8-27.5v-4.8l0,0c0,1.3-0.3,2.7-0.7,3.8
				l-6.9,19.7c0,0.3-0.4,0.4-0.7,0.7h-1.5c-0.4,0-0.9-0.3-0.9-0.7l-6.5-19.5c-0.4-1.3-0.7-2.4-0.7-3.8H426v3.6l-0.9,28.5
				c0,0.4-0.3,0.9-0.7,0.9h-3.1c-0.4,0-0.7-0.3-0.7-0.9l2-36.5c0-0.4,0.3-0.7,0.7-0.7h3.1c0,0,0.4,0.5,0.4,0.9l0,0l6.6,18.8
				c0,0.3,0.3,0.7,0.3,0.9c0.3,0.9,0.4,1.8,0.4,2.6c0.3-0.7,0.4-1.3,0.7-2c0.3-0.9,0.3-1.5,0.3-1.5l6.6-19.1
				c0.3-0.4,0.7,0.4,0.7,0.4h4c0.2,0,0.6,0.2,0.6,0.4c0,0,0,0,0,0.2L448.8,395.9z M314.3,392.7c2-0.8,3.8-2.2,4.6-3.9
				c1.5-3.8,2.2-7.9,2-11.9c0-5.7-0.9-9.5-2.4-11.4c-1.1-1.3-2.4-2.2-4.5-2.6V359c3.1,0.3,5.7,1.5,8,3.3c2.6,2.4,3.9,7.4,3.9,14.9
				c0,6.6-1.3,11.6-3.8,14.7c-2,2.4-4.9,3.9-7.1,4.2v-3.4H314.3z M403,358.1v3.8c-2.6,0-5,1.5-5.9,3.9c-1.3,3.8-1.8,7.9-1.5,11.9
				c-0.3,4.2,0.3,8.1,1.5,12c0.9,2.4,3.3,4.2,5.9,3.9v3.8c-3.9,0.3-7.4-1.8-9.5-5.3c-2.2-4.6-3.3-9.5-3.1-14.5
				c-0.3-5,0.7-9.9,3.1-14.5C395.3,359.9,399.1,357.9,403,358.1L403,358.1z M350.3,395.9c0,0.4-0.3,0.7-0.7,0.8l0,0h-17
				c-0.4,0-0.7-0.4-0.7-0.7v2.5v-39.1c0-0.3,0.3-0.7,0.5-0.7c0,0,0,0,0.3,0h18.9l0.3,0.3l-0.3,0.7l-0.7,2.5
				c-0.3,0.5-0.7,0.5-0.9,0.5h-14v12h11.1c0.4,0,0.7,0.2,0.9,0.7v0.1v2.4c0,0.4-0.2,0.7-0.7,0.9l0,0H337v14h13.3
				c0.3,0,0.7,0.2,0.7,0.4c0,0,0,0,0,0.2L350.3,395.9L350.3,395.9z M388.2,392.3c0.3,0.3,0.3,0.4,0.3,0.9s-0.9,1.5-2.8,2.6
				c-1.8,1.1-3.8,1.8-5.9,1.8c-3.9,0.3-7.9-2-9.6-5.5c-2.2-4.3-3.3-9.5-3.1-14.5c-0.3-4.9,0.7-9.6,2.6-14.1c2-3.5,5.7-5.5,9.6-5.3
				c2,0,4.2,0.4,5.9,1.5c1.7,1.1,2.6,2,2.6,2.6c0,0.3,0,0.4-0.3,0.7l-1.1,1.5c-0.3,0.3-0.4,0.4-0.7,0.4c-0.9-0.9-2-1.5-3.1-2.4
				c-1.1-0.7-2.2-0.9-3.5-0.9c-2.6-0.3-4.9,1.3-5.9,3.8c-1.3,3.8-1.8,7.4-1.5,11.4c-0.3,4.2,0.4,8.5,2,12.5c0.9,2.6,3.3,4.3,5.9,4.3
				c1.5,0,3.1-0.7,4.2-1.5c0.7-0.7,1.5-1.1,2.2-1.5c0.3,0,0.3,0,0.3,0.3l0.3,0.3L388.2,392.3z M310.7,395c1.2,0,2.1-0.3,3.3-0.3v1.7
				c-1.3,0.3-2.6,0.3-3.9,0.3h-6.4c-0.4,0-0.7-0.3-0.7-0.9v-36.5c0-0.4,0.3-0.7,0.7-0.7h6.8c1.2,0,2.4,0,3.5,0.3v4.2
				c-1.2-0.3-2.5-0.3-3.7-0.5H307v32.1L310.7,395z"/>
		</g>
	</g>
</g>
</svg>
