<?xml version="1.0" encoding="utf-8"?>
<!-- Generator: Adobe Illustrator 26.3.1, SVG Export Plug-In . SVG Version: 6.00 Build 0)  -->
<svg version="1.1" id="Capa_1" xmlns="http://www.w3.org/2000/svg" xmlns:xlink="http://www.w3.org/1999/xlink" x="0px" y="0px"
	 viewBox="0 0 205 59" style="enable-background:new 0 0 205 59;" xml:space="preserve">
<style type="text/css">
	.st0{fill:#FFECB6;}
	.st1{fill-rule:evenodd;clip-rule:evenodd;fill:#EED9C3;}
	.st2{fill:#353535;}
	.st3{fill-rule:evenodd;clip-rule:evenodd;fill:#A78347;}
	.st4{fill-rule:evenodd;clip-rule:evenodd;fill:#E3B261;}
	.st5{fill-rule:evenodd;clip-rule:evenodd;fill:#D4D4D4;}
	.st6{fill-rule:evenodd;clip-rule:evenodd;fill:#D5D5D5;}
	.st7{fill-rule:evenodd;clip-rule:evenodd;fill:#E6E6E6;}
	.st8{fill-rule:evenodd;clip-rule:evenodd;fill:#353535;}
</style>
<g>
	<rect x="-590" y="67" class="st0" width="841" height="358"/>
	<g>
		<path class="st1" d="M-481.6,264l15.3-53h61.2l15.3,53H-481.6z"/>
		<ellipse class="st2" cx="-416.2" cy="238.3" rx="4.3" ry="4.2"/>
		<path class="st3" d="M-444,233.7c0-1.5-1.3-2.7-2.8-2.7c-3.6,0-9.8,0-13.3,0c-1.6,0-2.8,1.2-2.8,2.7c0,2.3,0,5.7,0,8.3
			c0,2.2,1.9,4,4.2,4c1.5,0,3.1,0,4.9,0c2.6,0,5.1-1,7-2.7c1.9-1.8,2.9-4.1,2.9-6.6C-444,235.6-444,234.5-444,233.7z"/>
		<path class="st4" d="M-391,161.4l30.1-15.4l-16.5,61.3l-13.6,13.6L-391,161.4z"/>
		<path class="st4" d="M-480,161.4l-30.1-15.4l16.5,61.3l13.6,13.6L-480,161.4z"/>
		<path class="st4" d="M-390,189.4c0,0-22.7-15-45.5-15c-22.7,0-45.5,15-45.5,15v44.9l6.1,12c4.4-16.5,24.1-23.4,37.8-13.2l1.7,1.2
			l1.7-1.2c13.7-10.2,33.4-3.3,37.8,13.2l6.1-12V189.4z"/>
		<path class="st5" d="M-450.9,256.7l-12.1,70.4l-16.7-12l13.7-50.9L-450.9,256.7z"/>
		<path class="st6" d="M-420.5,256.7l12.1,70.4l16.7-12l-13.7-50.9L-420.5,256.7z"/>
		<path class="st7" d="M-481.2,234.3l-12.1,44.9l15.2,30l12.1-44.9L-481.2,234.3z"/>
		<path class="st7" d="M-390.1,234.3l12.1,44.9l-15.2,30l-12.1-44.9L-390.1,234.3z"/>
		<path class="st7" d="M-450.9,256.7l-13.7,73.4l28.8,15l28.8-15l-13.7-73.4l-14-6.9l-1.1-0.6L-450.9,256.7z"/>
		<path class="st8" d="M-430,259h-11c0,0,0,1.8,0,3.8c0,1.4,0.6,2.7,1.6,3.7s2.4,1.5,3.9,1.5c0,0,0,0,0,0c1.5,0,2.9-0.6,3.9-1.5
			s1.6-2.3,1.6-3.7C-430,260.8-430,259-430,259z"/>
		<path d="M-276.5,215.4l-3.8,0.2c-1.1,0-2.2,0-3.4-0.1c-0.7,0-1.4,0.6-1.9,0.6l-1.6-0.7l-7.9-0.4l-0.2,6.7l1,1l5-0.2
			c0.2,0,0.7-0.1,1.3-0.2l0.4-0.4l1.8,0.2l0.5,3.4l-0.3,5.2l0.5,3.8l-0.4,16.7l-0.4,11.5l0.7,0.8l-1.7,5.1v6.3l4.8,0.7l2.3-0.4
			l2.4-1.3l-1.5-5.8v-15.5l-0.1-1.6l0.1-0.1l1-4.9v-6.3v-1.4c-0.5-0.6-0.5-1.3-0.5-2c-0.1-0.5-0.1-2.5-0.1-3.3l0.1-6l-0.3-1.8
			l0.4-3.4h2.6l2.5,0.2l0.8,0.8h3.7l0.2-4.4l-0.5-3.4L-276.5,215.4z M-262.5,261.4l0.2,5.2l1.2,1.2l-1.4,1.6l-0.3,5.5l5.3,0.5
			l3.5-0.2l0.1-3.1l-0.3-3.7l-0.5-4.4l0.1-0.2l0.4-14.4l6.6-2.5h0.3l5-1.1l-0.1,1.5l0.3,1.2l-0.2,12.9l1.3,1.3l-0.9,0.8l-0.6,9.4
			l1.1,2.9h4.6l3.1-0.8l-0.2-4.6l-1.5-2.1l1.1-10.6v-14.8l-0.8-1.7l-0.3-3.7l0.4-7.8l-0.8-2.4l0.8-1.1l0.5-3.1v0.1l0.1-4.7l0.3-4.1
			l-4.8-0.2l-3.1-0.1l-1.3,2.4l0.4,3.3l0.2,7.5l0.3,7.5l-0.3,2.2l-0.9,0.4l-1.6,0.7l-3.5,1.5l-0.8,0.9l-1.4-0.5l-3.6,1.2l-0.2,0.1
			l-0.8-8l0.3-5.5l-0.9-0.7l1-1.6l0.4-5.1l0.3-6l-7.3-0.9l-2,1.3l0.6,5.1l-0.3,1.7l0.3,5.5l0.6,5.1l-0.3,8.1l0.6,9.4L-262.5,261.4z
			 M-202.6,223l0.1-5l-0.1-4h-8.4l-2.9,1.4l-1-0.4h-4.2l-3.5,0.2l0.4,5.3l0.8,1l-0.8,1.3l-0.8,3.8l1,5.8v8.3l-0.2,3l0.7,8.1
			l-0.3,0.7l-0.1,4.4v1.9l0.9,1l-1,2.1l-0.1,3.8l0.1,0.9l-0.5,5.6l0.4,3h6.1l0.7,1h2.6h4.8l5.6,0.1l2.1-0.9l0.4-3.3l0.2-4.5
			l-4.5-0.1l-2.2,0.7l-7,0.1l-0.7-0.2l-0.7-0.2l-0.2-8l-0.1-0.2l0.2-0.7l-0.5-2.4l0.3-8.5h1.3l5.2,0.2l4,0.2l0.2-3.4l0.5-2.5
			l-1.1-2.1l-4.2,0.4l-3.2,0.2l-3-0.2l-0.2-3.2l-0.8-0.7l0.9-1.5l0.4-2.5v-7.8l1-2.1V223h0.6l4.1-0.6l1.2-0.3l0.2-0.1l1.8,0.9
			H-202.6z M-162.5,214.9l-0.8,0.1h-2.9l-0.2,0.6l-0.5,2.5l-0.3,0.5l-4.4,11l0.4,0.9l-1.5,1.1l-4.4,10.7l-0.7,0.4l0.2,5.2l2,4.2
			l2.9,7l2.5,5.1h0.9l-0.2,1.4l2.8,7l0.1,2.6l7.5,0.1l0.2-0.9l1-2.6l4.4-10.3l1.9-3.9l0.1-1.3l0.6-0.8l4-8l0.2-4.4l-2.7-6l-2.2-4.8
			h-0.7l-0.4-2.2l-4.2-10.4l-1.7-4.6L-162.5,214.9z M-162.2,264.7l-3.6-9.4l-1.6-3.4l-1.6-1.1l0.8-1l-0.7-2.4l-1.1-2.7l-0.1-1l2.7-7
			l-0.6-1.3l1.1-0.3l4.5-11.8l0.5,1.6l1.9,5l1.5,0.9l-0.7,1l3.2,8.3l1,2.8l0.7,2l-4,9.8l0.1,1.5h0.1l-1,1l-2.6,8.6L-162.2,264.7z
			 M-125.7,268l2.9-5.8l8.4-12.9l1.5-2.4l-0.1-7l-1.5-1.9l0.1,0.2l-6.2-8.2l-2.1-3.7l-2.8-2.8l-0.9-2.7l-5-6.9l-4.3,1.3l-3.5,1.1
			l0.1,3l0.2,4.2l0.8,1.1l-0.8,1.5v21.9l1,3.2l-1,18.3v0.3l-0.2,5.5l5.3,0.7l2.7,0.7L-125.7,268z M-131.3,237l-0.2-11.8l0.5,0.6
			l8.1,13l1.6,1.3l0.3,2l1.5,2.2l-1.5,2.4l-2.7,4.5l-3.4,6.6l0.7,0.7l-1.5,0.7l-3.6,5.8l-0.1,0.2l0.1-4.4l0.3-16.2l-1.3-3.8
			L-131.3,237z M-104.1,240l-0.2,4.1l0.4,2.3v15.3v3.1l0.4,1.5l-1,1.7l-1.2,7.7l4,0.1l1.8,0.1l3.8-1.2l0.1-3.2l-0.2-1.6l-0.6-1.3
			v-22.6l-0.9-0.6l0.7-1.7l-0.2-2l-0.3-3.2l0.2-4.2l0.2-10.7l0.4-2l0.4-6l-5.3-0.3l-3.8,0.2l0.4,4.1l0.7,0.4l-0.7,1.5v16.7
			L-104.1,240z M-58,268.6V266l-0.4-17.9l-1-2.7l0.7-3.4l0.9-20.1l0.2-5.6l-3.6-0.3l-3.9,0.1v6.5l0.9,1.1l-0.9,2.5v7l-2.8-4.4
			l-0.7-0.3l-2.1-3.3l-7.7-10.1L-85,217v3.5l0.6,8.5l0.3,4.7l-0.3,17l0.7,1.6l-0.4,2.4l-1,11.6v1.5l1.1,0.7l-0.6,6.4l3.4,0.6
			l4.7-0.2l0.2-5.1l0.2-1.1v-8.6l-1-3.1l1-2.9v-18.6l-1.4-1.1l-0.1-0.2l1.5-2.9v-4.1l2,2.8l3.2,4.5l2.3,2.7l1.1,1.7l1.1,1.2l1.3,2.1
			v8.8l-0.1,1.6l0.7,0.4l-1.1,7.8l0.5,7.8v6.8l1.9,0.2l4.8-0.1l1.1-2.8L-58,268.6z M-8.9,243.9l2.6-2.5l2.5-3.1l0.2-5.6l-8.5-9
			l-1.7-0.6l-0.3-1.4l-7.4-7.6l-2.6,1l-3.9,1.7l0.2,5.5l-0.2,3.4V239v0.4v20.4l1.3,1.1l-0.7,2.5l-0.9,11.7l4.7,0.5l4.1-0.2
			l-0.5-10.1l-1.3-1.1l1.3-2l-0.2-5.6l0.7-0.8l5.5-6.2L-8.9,243.9z M-19,238.1l-1.6-1.5l0.7-2.3l-0.1-3.6v-5.3l4.4,4.8l0.7,0.4
			l0.5,1l3.2,3.6l-1.2,1.7l-0.7,1.9l-0.8-0.2l-3.7,4.4l-1.4,2.3V238.1z M13.4,251.6l2.9,5.9l0.7,1.7l2.7,5.1l0.9,0.4l-0.1,1.2
			l2.6,5.8l1.8,2.8l5.9-3.3l0.1-2.1l-2.4-2.6l-1.3-2.8v0.2l-2-2.4l1-0.2v-1.4l-3.4-5c-0.5-0.7-1.6-1.8-1.6-1.8v-0.9
			c-0.5-1-1.5-2.5-2.1-3.7l2.4-3.3l1.5-1.8l2.7-3.3l3.9-4.8l0.6-5.2l-4.1-3.8c-0.1,0-1.5,0.4-1.5,0.3l-0.5-2.1L10.2,213l-6.8,2.7
			l0.3,7.4l0.4,16.4l-0.7,1.7l0.2,4.5l0.3,10v1.8l0.8,1.1l-1.3,3.3L3,275.5l5.6,0.5l3.4-1.4v-7.5l0-0.7l1-7.4l-0.1-7.9L13.4,251.6z
			 M12.3,242.5l-0.3-7.3l-0.2-0.9l-0.2-0.5l-0.3-1.5l0.7-1.6V230l0.2-6.3l7.5,7.4l0.6,0.4l1.6,2l-0.9,1.1c-1.1,1.5-3,4-4.2,5.4
			l-4.1,5.1l-0.6,0.3L12.3,242.5z M48.6,214.9l-0.8,0.1H45l-0.2,0.6l-0.5,2.5l-0.3,0.5l-4.4,11l0.4,0.9l-1.5,1.1l-4.4,10.7l-0.7,0.4
			l0.2,5.2l2,4.2l2.9,7L41,264h0.9l-0.2,1.4l2.8,7l0.1,2.6l7.5,0.1l0.2-0.9l1-2.6l4.4-10.3l1.9-3.9l0.1-1.3l0.6-0.8l4-8l0.2-4.4
			l-2.7-6l-2.2-4.8h-0.7l-0.4-2.2L54,219.3l-1.7-4.6L48.6,214.9z M48.9,264.7l-3.6-9.4l-1.6-3.4l-1.6-1.1l0.8-1l-0.7-2.4l-1.1-2.7
			l-0.1-1l2.7-7l-0.6-1.3l1.1-0.3l4.5-11.8l0.5,1.6l1.9,5l1.5,0.9l-0.7,1l3.2,8.3l1,2.8l0.7,2l-4,9.8l0.1,1.5h0.1l-1,1l-2.6,8.6
			L48.9,264.7z M73.6,239.3l-0.6,4.1v6.2l1,1v2.9l-0.3,9.3l0.2,0.8l-1.3,1.8l-3.8,2.5l-3.8,1.5v4l4.5,3.4l6.1-4.9l-0.1-1.6l2.2-0.3
			l2.6-2.3l1.3-2.3l-1-14.2l-0.7-2.5l0.9-0.7l-0.4-22.2l1.1-7.9l-1.2-3.1l-8.6,0.2v6.2l1.9,0.7l-1,1.2l0.2,12.5L73.6,239.3z
			 M114.5,223l0.2-5l-0.1-4h-9.7l-2.9,1.4l-1-0.4h-4.2l-3.5,0.2l0.4,5.3l0.8,1l-0.8,1.3l-0.5,3.8l1,5.8v8.3l-0.6,3l0.7,8.1l-0.3,0.7
			l0.3,4.4v1.9l0.5,1l-1,2.1l-0.1,3.8l0.1,0.9L93,272l0.4,3h6.1l0.7,1h2.6h4.8l5.6,0.1l2.1-0.9l0.4-3.3l0.2-4.5l-4.5-0.1l-2.2,0.7
			l-5.6,0.1l-0.7-0.2l-0.7-0.2l-0.2-8l-0.1-0.2l0.2-0.7l-0.5-2.4l0.3-8.5h1.3l5.2,0.2l4,0.2l0.2-3.4l0.5-2.5l-1.1-2.1l-4.2,0.4
			l-3.2,0.2l-3-0.2l-0.2-3.2l-0.8-0.7l0.9-1.5l0.4-2.5v-7.8v-2.1V223h0.4l4.6-0.6l1.3-0.3l0.3-0.1l2,0.9H114.5z M119.9,251l2.9,5.2
			l3.7,3.4l-0.6,1.4l6,9.4l0.2,1l2.7,4.2l2.7-1.7l4.1-3.4l-1.8-2.9l-4.1-5.4l-3.7-6.2l-2.9-4.5l-0.7-1.6l-1.1-1.1l-0.8-1.5l-1.2-2.3
			l1-1.9l1.5-2.7l2.6-4.1l4.8-7.1l0.4-2.1l1.3-0.9l2.2-3.1l2.2-4l-6-4l-2.8,3.3l-0.1,0.6l-4.4,7.3V226l-2,3.2v2.2l-2.9,2.8l-5.1,8.7
			l0.1,5.3L119.9,251z M163.8,215.4l-3.8,0.2c-1.1,0-2.2,0-3.4-0.1c-0.7,0-1.4,0.6-1.9,0.6l-1.6-0.7l-7.9-0.4l-0.2,6.7l1,1l5-0.2
			c0.2,0,0.7-0.1,1.3-0.2l0.4-0.4l1.8,0.2l0.5,3.4l-0.3,5.2l0.5,3.8l-0.4,16.7l-0.4,11.5l0.7,0.8l-2.1,5.1v6.3l5.2,0.7l2.3-0.4
			l2.4-1.3l-1.8-5.8v-15.5l-0.1-1.6l0.1-0.1l1-4.9v-6.3v-1.4c-0.4-0.6-0.5-1.3-0.5-2c-0.1-0.5-0.1-2.5-0.1-3.3l0.1-6l-0.3-1.8
			l0.4-3.4h2.9l2.5,0.2l0.8,0.8h3.7l0.2-4.4l-0.5-3.4L163.8,215.4z"/>
	</g>
</g>
</svg>
